<svg id="visual" viewBox="0 0 900 450" width="900" height="450" xmlns="http://www.w3.org/2000/svg" xmlns:xlink="http://www.w3.org/1999/xlink" version="1.1"><rect x="0" y="0" width="900" height="450" fill="#FFFFFF"></rect><defs><linearGradient id="grad1_0" x1="50%" y1="0%" x2="100%" y2="100%"><stop offset="10%" stop-color="#fcdd6c" stop-opacity="1"></stop><stop offset="90%" stop-color="#fcdd6c" stop-opacity="1"></stop></linearGradient></defs><defs><linearGradient id="grad1_1" x1="50%" y1="0%" x2="100%" y2="100%"><stop offset="10%" stop-color="#fcdd6c" stop-opacity="1"></stop><stop offset="90%" stop-color="#ffeeb6" stop-opacity="1"></stop></linearGradient></defs><defs><linearGradient id="grad1_2" x1="50%" y1="0%" x2="100%" y2="100%"><stop offset="10%" stop-color="#ffffff" stop-opacity="1"></stop><stop offset="90%" stop-color="#ffeeb6" stop-opacity="1"></stop></linearGradient></defs><defs><linearGradient id="grad2_0" x1="0%" y1="0%" x2="50%" y2="100%"><stop offset="10%" stop-color="#fcdd6c" stop-opacity="1"></stop><stop offset="90%" stop-color="#fcdd6c" stop-opacity="1"></stop></linearGradient></defs><defs><linearGradient id="grad2_1" x1="0%" y1="0%" x2="50%" y2="100%"><stop offset="10%" stop-color="#ffeeb6" stop-opacity="1"></stop><stop offset="90%" stop-color="#fcdd6c" stop-opacity="1"></stop></linearGradient></defs><defs><linearGradient id="grad2_2" x1="0%" y1="0%" x2="50%" y2="100%"><stop offset="10%" stop-color="#ffeeb6" stop-opacity="1"></stop><stop offset="90%" stop-color="#ffffff" stop-opacity="1"></stop></linearGradient></defs><g transform="translate(900, 0)"><path d="M0 180C-20.6 170.7 -41.2 161.4 -63.9 154.3C-86.6 147.1 -111.5 142.1 -127.3 127.3C-143.1 112.5 -149.8 87.9 -157.1 65.1C-164.3 42.2 -172.2 21.1 -180 0L0 0Z" fill="#fff6db"></path><path d="M0 120C-13.7 113.8 -27.5 107.6 -42.6 102.9C-57.8 98.1 -74.3 94.7 -84.9 84.9C-95.4 75 -99.9 58.6 -104.7 43.4C-109.6 28.1 -114.8 14.1 -120 0L0 0Z" fill="#ffe592"></path><path d="M0 60C-6.9 56.9 -13.7 53.8 -21.3 51.4C-28.9 49 -37.2 47.4 -42.4 42.4C-47.7 37.5 -49.9 29.3 -52.4 21.7C-54.8 14.1 -57.4 7 -60 0L0 0Z" fill="#fcdd6c"></path></g><g transform="translate(0, 450)"><path d="M0 -180C18.6 -166.6 37.1 -153.2 60.8 -146.9C84.6 -140.6 113.5 -141.4 127.3 -127.3C141.1 -113.2 139.7 -84.2 146 -60.5C152.2 -36.8 166.1 -18.4 180 0L0 0Z" fill="#fff6db"></path><path d="M0 -120C12.4 -111.1 24.7 -102.1 40.6 -97.9C56.4 -93.7 75.7 -94.3 84.9 -84.9C94 -75.4 93.1 -56.1 97.3 -40.3C101.5 -24.5 110.7 -12.3 120 0L0 0Z" fill="#ffe592"></path><path d="M0 -60C6.2 -55.5 12.4 -51.1 20.3 -49C28.2 -46.9 37.8 -47.1 42.4 -42.4C47 -37.7 46.6 -28.1 48.7 -20.2C50.7 -12.3 55.4 -6.1 60 0L0 0Z" fill="#fcdd6c"></path></g></svg>